<?xml version="1.0" encoding="utf-8"?>
<!-- Generator: Adobe Illustrator 25.3.0, SVG Export Plug-In . SVG Version: 6.00 Build 0)  -->
<svg version="1.1" id="Calque_1" xmlns="http://www.w3.org/2000/svg" xmlns:xlink="http://www.w3.org/1999/xlink" x="0px" y="0px"
	 viewBox="0 0 600 512.4" style="enable-background:new 0 0 600 512.4;" xml:space="preserve">
<g>
	<path d="M496.1,83.4c0.3-10,12.3-0.7,12.3-0.7s-10.1-14.9-17-11.1c-6.9,3.8-2.2,21,4.4,23.5c6.6,2.5,14.4-1.6,14.4-1.6
		S495.8,93.3,496.1,83.4z"/>
	<path d="M573.2,173.2c11.8-3.5,14.8-18.4,14.8-18.4c8.8-5.6,13.8-29.2-14.3-43.7c-5.9-3.1-5-17.6,0.9-23.5c6-6-6.9-13.5-15.1-29.5
		c-8.2-16-26.7-15.4-30.1-22.3c-3.4-6.9-16.3-22.6-40.5-28.2C465,1.9,397,75.9,391.6,91.3c-5.3,15.4-30.7,35.7-62.4,47
		c-31.7,11.3-54.2,28.5-86.2,19.4c-18.5-5.3-42.7-3.8-64.1,4.4C59.7,208.4,61.8,381,61.8,381s-17.7,16.1-30,35.7
		c-12.2,19.7-24.8,54.9-26.5,61.1c-3,10.6,16,27.3,16,27.3h101.8c7.3-18.2-13-25.5-19-32c-5.9-6.4,30-18.8,43.2-41.6
		c3,23.9,13.3,58.8,19,59.8c7.1,1.3,25.1,13.8,25.1,13.8h92.4c-2.5-18.2-26.7-25.5-36.2-32c-9.5-6.5-1.1-19.9-0.9-43.3
		c0.1-23.4-15.8-39.3-15.8-39.3c19.5-10.8,21.4-42.7,20.8-60.9c35.6,6.9,81.1-4.2,110.3-18.9c8.3-4.2,23-14.3,37.6-25
		c-6.6,8.8-14.4,18.2-20.7,28.6c-33.6,55.6-21.2,127.1-16.3,135c6.1,9.9-3.1,18-3.1,18c-1,2-10.9-4.8-10.4-13.1
		c0.1-2.5-2.7-3.4-3.9-3.8c-6.9-2.1-23.3,34.8-5.1,54.7h26c0,0,23.3-0.5,43.8-15.6c22-16.3,46.8-68,59.2-105.4
		c13.6,37.8,38.9,68.1,44.9,72.1c11,7.3,6.2,16.9,6.2,16.9c0.1,2.1-13-1.4-16.8-9c-1.2-2.3-4.4-2.3-5.7-2.3
		c-7.7,0-11.4,30.3,16.3,43.3h32c0,0,19.4-2.6,34.1-25.5c19-29.7,4.5-129-9.1-146.1c-7.9-9.9-24.6-59.6-18.2-74.2
		c17.4-39.4-17.7-88.4-17.7-88.4s7.7-3.1,10.2-1.9c13.2,6,11.8,24.2,11.8,24.2C564.8,188.4,568.6,174.5,573.2,173.2z M535.2,116.6
		c0,0-31.6,13.2-18.7,36c-5.8-5-12.4-14.8-7.5-31.9c0,0-12.8,17.5-8.6,34.6c-19.5,3.2-36.7,12.6-36.7,12.6s104-13.9,74.5,85
		c-3.9,13.2-17.6,19.9-17.6,19.9s7.7,0.8,17.1-1c2.6,27.4,15.5,64.8,20.7,71.3c3,3.9,11.1,26.4,13.5,60.5
		c5.5,79.4-34.6,63.9-36.1,57.6c-1.5-6.4-5.5-12.9-13.1-18c-7.9-6.6-35.6-56.7-30.2-106.9c2.8-25.4,6.6-30.7,12.5-41
		c-69.9,12.8-88.8-71.6-79.2-85.5c0,0-11.9,5.9-16.4,37.6c-132,108-187.2,15.2-187.2,15.2s-1.9,102.5-101.8,131.4
		c9.2,2.1,21.3,4,21.3,4c14.7,36-54.8,58.3-53.8,71.5c-32.8,18-62.2,2.1-63.2,0c8.9-46.1,41.5-71.5,41.7-71.7l11.9,19.2l-0.8-36.2
		c28.7-194,130-209.4,141.6-210.5c37.2-3.6,55,28.2,55,28.2s0.3-14.3-5.3-22.9c23.9,2,88.8-27.8,110.9-47.1
		c-2.3,15.6,0.3,27.5,0.3,27.5S442,22.5,485.7,26.3c18.6,1.6,28,12.7,29.9,16.4c4,8,11.6,11.1,17.7,13.6c3.7,1.5,6.6,2.9,8.7,4.5
		c-5.4,1.3-15.8,5.2-23.2,17.9c0,0,22.1-14.1,35.4-3.5C538.5,69.6,515.4,97.9,535.2,116.6z"/>
</g>
</svg>
